<!DOCTYPE svg PUBLIC "-//W3C//DTD SVG 1.1//EN" "http://www.w3.org/Graphics/SVG/1.1/DTD/svg11.dtd">
<!-- Uploaded to: SVG Repo, www.svgrepo.com, Transformed by: SVG Repo Mixer Tools -->
<svg fill="#4d91ff" width="800px" height="800px" viewBox="0 0 32 32" id="OBJECT" xmlns="http://www.w3.org/2000/svg">
<g id="SVGRepo_bgCarrier" stroke-width="0"/>
<g id="SVGRepo_tracerCarrier" stroke-linecap="round" stroke-linejoin="round"/>
<g id="SVGRepo_iconCarrier">
<title/>
<path d="M21,14V10a1,1,0,0,0-1-1h-.5V6a1,1,0,0,0-2,0V9h-3V6a1,1,0,0,0-2,0V9H12a1,1,0,0,0-1,1v4a5,5,0,0,0,10,0Z"/>
<path d="M16,1A15,15,0,0,0,1,16a15.91,15.91,0,0,0,.21,2.5A2.92,2.92,0,0,1,2.29,18a8,8,0,0,1,.85-.16A13.68,13.68,0,0,1,3,16,13,13,0,1,1,17,29v-8a6.29,6.29,0,0,1-2,0V30a1,1,0,0,0,1,1A15,15,0,0,0,16,1Z"/>
<path d="M2.77,19.92a1,1,0,0,0-.52.32,5.38,5.38,0,0,0-.42,6.33,5.42,5.42,0,0,0,4.59,2.58A5,5,0,0,0,7.69,29a1,1,0,0,0,.52-.32,5.36,5.36,0,0,0,.42-6.32A5.37,5.37,0,0,0,2.77,19.92Z"/>
</g>
</svg>