<!DOCTYPE svg PUBLIC "-//W3C//DTD SVG 1.1//EN" "http://www.w3.org/Graphics/SVG/1.1/DTD/svg11.dtd">
<!-- Uploaded to: SVG Repo, www.svgrepo.com, Transformed by: SVG Repo Mixer Tools -->
<svg fill="#4d91ff" height="800px" width="800px" version="1.1" id="Layer_1" xmlns="http://www.w3.org/2000/svg" xmlns:xlink="http://www.w3.org/1999/xlink" viewBox="0 0 300.004 300.004" xml:space="preserve">
<g id="SVGRepo_bgCarrier" stroke-width="0"/>
<g id="SVGRepo_tracerCarrier" stroke-linecap="round" stroke-linejoin="round"/>
<g id="SVGRepo_iconCarrier"> <g> <g> <g> <path d="M148.456,233.39c-2.381-2.725-7.031-2.725-9.412,0l-43.75,50c-1.619,1.844-2,4.469-0.981,6.694 c1.013,2.237,3.231,3.669,5.688,3.669h87.5c2.456,0,4.675-1.431,5.688-3.669c1.013-2.225,0.631-4.85-0.981-6.694L148.456,233.39z M113.775,281.252l29.975-34.25l29.975,34.25H113.775z"/> <path d="M299.625,160.377c-1.169-3.256-4.737-4.919-8-3.744L90.03,229.941c6.258-8.35,9.97-18.713,9.97-29.926 c0-27.575-22.431-50.013-50-50.013c-27.569,0-50,22.438-50,50.013c0,23.619,16.47,43.453,38.524,48.655l-21.899,7.963 c-3.244,1.175-4.919,4.756-3.744,8.006c0.919,2.537,3.319,4.112,5.869,4.112c0.706,0,1.431-0.125,2.138-0.375l275-100 C299.138,167.208,300.806,163.633,299.625,160.377z M12.5,200.015c0-20.713,16.788-37.513,37.5-37.513 c20.706,0,37.5,16.8,37.5,37.513c0,20.706-16.8,37.5-37.5,37.5C29.288,237.515,12.5,220.715,12.5,200.015z"/> <path d="M231.25,93.765c24.156,0,43.75-19.606,43.75-43.75c0-24.169-19.594-43.763-43.75-43.763s-43.763,19.594-43.763,43.763 C187.487,74.158,207.094,93.765,231.25,93.765z M231.25,18.752c17.231,0,31.25,14.025,31.25,31.263 c0,17.231-14.019,31.25-31.25,31.25c-17.237,0-31.263-14.019-31.263-31.25C199.987,32.777,214.013,18.752,231.25,18.752z"/> </g> </g> </g> </g>
</svg>